<svg xmlns="http://www.w3.org/2000/svg" viewBox="0 0 100 130" fill="currentColor">
  <!-- Map marker shape -->
  <path d="M50 0C22.4 0 0 22.4 0 50c0 35 50 80 50 80s50-45 50-80C100 22.4 77.6 0 50 0z" fill="currentColor"/>
  <!-- Brain pattern inside -->
  <g transform="translate(15, 12) scale(0.7)" fill="#ffffff">
    <!-- Left hemisphere -->
    <path d="M25 15c-8 0-15 7-15 15v25c0 8 7 15 15 15h5v-10h-5c-3 0-5-2-5-5V30c0-3 2-5 5-5h5V15h-5z"/>
    <path d="M30 25c-3 0-5 2-5 5v10c0 3 2 5 5 5h5V25h-5z"/>
    <path d="M30 50c-3 0-5 2-5 5v5c0 3 2 5 5 5h5V50h-5z"/>
    <!-- Right hemisphere -->
    <path d="M75 15c8 0 15 7 15 15v25c0 8-7 15-15 15h-5v-10h5c3 0 5-2 5-5V30c0-3-2-5-5-5h-5V15h5z"/>
    <path d="M70 25c3 0 5 2 5 5v10c0 3-2 5-5 5h-5V25h5z"/>
    <path d="M70 50c3 0 5 2 5 5v5c0 3-2 5-5 5h-5V50h5z"/>
    <!-- Center connection -->
    <rect x="45" y="20" width="10" height="50" rx="3"/>
    <!-- Brain folds -->
    <ellipse cx="35" cy="35" rx="8" ry="5"/>
    <ellipse cx="65" cy="35" rx="8" ry="5"/>
    <ellipse cx="35" cy="55" rx="6" ry="4"/>
    <ellipse cx="65" cy="55" rx="6" ry="4"/>
  </g>
</svg>